<svg width="24" height="25" viewBox="0 0 24 25" fill="none" xmlns="http://www.w3.org/2000/svg">
<path fill-rule="evenodd" clip-rule="evenodd" d="M5 3.5V4.84708C4.35095 5.04034 3.77636 5.3406 3.30848 5.80848C2.74209 6.37488 2.42133 7.09764 2.23866 7.91959C2.05852 8.73018 2 9.69557 2 10.812V16.188C2 17.3044 2.05852 18.2698 2.23866 19.0804C2.42133 19.9024 2.74209 20.6251 3.30848 21.1915C3.87488 21.7579 4.59764 22.0787 5.41959 22.2613C6.23018 22.4415 7.19557 22.5 8.312 22.5H15.688C16.8044 22.5 17.7698 22.4415 18.5804 22.2613C19.4024 22.0787 20.1251 21.7579 20.6915 21.1915C21.2579 20.6251 21.5787 19.9024 21.7613 19.0804C21.9415 18.2698 22 17.3044 22 16.188V10.812C22 9.69557 21.9415 8.73018 21.7613 7.91959C21.5787 7.09764 21.2579 6.37488 20.6915 5.80848C20.2236 5.3406 19.6491 5.04034 19 4.84708V3.5C19 2.94772 18.5523 2.5 18 2.5C17.4477 2.5 17 2.94772 17 3.5V4.53477C16.5889 4.51008 16.1515 4.5 15.688 4.5H8.312C7.84855 4.5 7.41113 4.51008 7 4.53477V3.5C7 2.94772 6.55228 2.5 6 2.5C5.44772 2.5 5 2.94772 5 3.5ZM6 9.5C6 8.94772 6.44772 8.5 7 8.5H17C17.5523 8.5 18 8.94772 18 9.5C18 10.0523 17.5523 10.5 17 10.5H7C6.44772 10.5 6 10.0523 6 9.5Z" fill="#4B4948"/>
</svg>
