<svg width="47" height="60" viewBox="0 0 47 60" fill="none" xmlns="http://www.w3.org/2000/svg">
<path d="M46.1074 11.3792C45.548 10.4745 44.7506 9.69474 43.975 9.26466C43.4573 8.97415 42.9703 8.84278 42.5538 8.84278C42.2205 8.84466 41.921 8.91485 41.5809 9.10552C36.4854 12.0109 32.2822 15.636 29.1986 19.6673C26.1131 23.6976 24.1454 28.1302 23.4908 32.6655C23.3886 33.3677 22.6964 33.8588 21.9445 33.7645C21.1907 33.6711 20.6641 33.0254 20.7643 32.3233C21.4854 27.3319 23.6435 22.5107 26.959 18.1762C28.6918 15.9154 30.7417 13.7861 33.0685 11.8306C32.2038 10.1877 32.6123 8.49028 33.4911 6.92337C33.9522 6.10106 34.4412 5.34813 34.7834 4.5979C34.7685 4.56005 34.7328 4.49618 34.6713 4.41485C34.5404 4.23907 34.2894 3.99755 33.9631 3.76083C33.3085 3.28177 32.3564 2.81642 31.5044 2.55005C30.94 2.3697 30.4114 2.28087 30.1159 2.28544L30.0316 2.28638C29.9839 2.37052 29.9275 2.47317 29.8659 2.58977C29.74 2.82931 29.5854 3.1272 29.4107 3.44806C29.0526 4.09106 28.6144 4.83099 28.0082 5.48864C27.6026 5.92528 27.1136 6.34247 26.4561 6.61528C26.0842 6.76974 25.6517 6.86876 25.2015 6.86595C22.8825 6.8752 21.7302 4.85126 21.4574 2.98833C21.4099 2.65716 21.389 2.36852 21.389 2.12161C21.389 2.04474 21.389 1.97724 21.389 1.9163C21.39 1.71005 21.3781 1.60458 21.3692 1.57224C21.3564 1.5379 21.3712 1.55372 21.3207 1.48622C21.2849 1.44181 21.2125 1.36786 21.0816 1.26696C20.9208 1.13747 20.5797 0.976571 20.1176 0.872978C19.6583 0.767509 19.089 0.712079 18.5039 0.7129C17.9781 0.7129 17.4387 0.755556 16.9507 0.832196C14.2629 1.24751 14.8075 2.83763 14.8075 4.89954C14.8075 5.40087 14.7856 5.96688 14.7162 6.60063C14.6418 7.32309 14.4445 7.99645 14.1569 8.6172C13.8712 9.23688 13.4964 9.79927 13.0689 10.3238C12.2149 11.371 11.1615 12.2683 10.0409 13.2155C7.79741 15.107 5.26445 17.1801 3.20732 20.6461C-1.67428 28.8851 -0.729145 38.5655 4.3212 46.5149C7.18249 51.0309 11.2459 55.014 15.9362 57.4431C19.0683 59.0636 22.4662 59.9997 26.0198 59.9997C27.4907 59.9997 28.9913 59.8396 30.5168 59.4965C32.1245 59.084 33.7917 58.1608 35.3776 56.789C36.9713 55.4153 38.4764 53.6014 39.7637 51.4813C42.3424 47.241 44.0384 41.7808 44.0325 36.2103C44.0325 31.9164 43.0337 27.5662 40.704 23.5922C40.3856 23.9262 40.0811 24.2731 39.7955 24.6357C39.0636 25.5671 38.4475 26.5967 38.0042 27.7779C37.7524 28.4475 36.9674 28.8 36.2512 28.5643C35.5342 28.3312 35.1573 27.6004 35.4082 26.9307C35.9478 25.4867 36.7054 24.224 37.5797 23.1168C38.4536 22.0087 39.4413 21.0522 40.453 20.2031C42.4754 18.5057 44.5958 17.2116 46.1351 16.0239C46.4446 15.7825 46.6449 15.5207 46.7876 15.2118C46.9266 14.902 46.9999 14.5384 46.9999 14.1268C47.0079 13.2958 46.6786 12.282 46.1074 11.3792Z" fill="#FD995C"/>
<path d="M24.2616 0.005625L24.2598 0L24.2607 0.00375L24.2616 0.005625Z" fill="#FD995C"/>
<path d="M2.74748 8.7205C3.05281 9.29858 3.38804 9.97393 3.70254 10.7157C4.16958 11.8147 4.59704 13.055 4.79054 14.3492C5.63842 13.5092 6.4775 12.7684 7.26306 12.1023C8.34716 11.181 9.32208 10.3846 10.0849 9.63339C9.74175 9.33737 9.452 9.0062 9.17733 8.64643C8.54155 7.80842 7.98127 6.81772 7.44764 5.91303C7.13126 5.37093 6.82769 4.8696 6.55201 4.46811C6.46871 4.44596 6.32094 4.42194 6.12556 4.42288C5.8191 4.42194 5.40747 4.47925 4.94433 4.62913C4.48219 4.77901 3.96841 5.02229 3.44081 5.39225C2.76834 5.86124 2.38448 6.27198 2.18118 6.5735C1.98089 6.87784 1.95413 7.06194 1.95312 7.16729C1.95312 7.25237 1.97097 7.30053 1.99283 7.3412C2.17125 7.66593 2.44391 8.14511 2.74748 8.7205Z" fill="#FD995C"/>
<path d="M46.9976 7.50012L46.9805 7.48535L46.9824 7.48816L46.9976 7.50012Z" fill="#FD995C"/>
</svg>
