<svg width="24" height="25" viewBox="0 0 24 25" fill="none" xmlns="http://www.w3.org/2000/svg">
<path fill-rule="evenodd" clip-rule="evenodd" d="M13.0867 21.8877L13.6288 20.9718C14.0492 20.2614 14.2595 19.9062 14.5972 19.7098C14.9349 19.5134 15.36 19.5061 16.2104 19.4915C17.4658 19.4698 18.2531 19.3929 18.9134 19.1194C20.1386 18.6119 21.1119 17.6386 21.6194 16.4134C22 15.4946 22 14.3297 22 12V11C22 7.72657 22 6.08985 21.2632 4.88751C20.8509 4.21473 20.2853 3.64908 19.6125 3.2368C18.4101 2.5 16.7734 2.5 13.5 2.5H10.5C7.22657 2.5 5.58985 2.5 4.38751 3.2368C3.71473 3.64908 3.14908 4.21473 2.7368 4.88751C2 6.08985 2 7.72657 2 11V12C2 14.3297 2 15.4946 2.3806 16.4134C2.88807 17.6386 3.86144 18.6119 5.08658 19.1194C5.74689 19.3929 6.53422 19.4698 7.78958 19.4915C8.63992 19.5061 9.06509 19.5134 9.40279 19.7098C9.74049 19.9063 9.95073 20.2614 10.3712 20.9718L10.9133 21.8877C11.3965 22.704 12.6035 22.704 13.0867 21.8877ZM16 12.5C16.5523 12.5 17 12.0523 17 11.5C17 10.9477 16.5523 10.5 16 10.5C15.4477 10.5 15 10.9477 15 11.5C15 12.0523 15.4477 12.5 16 12.5ZM13 11.5C13 12.0523 12.5523 12.5 12 12.5C11.4477 12.5 11 12.0523 11 11.5C11 10.9477 11.4477 10.5 12 10.5C12.5523 10.5 13 10.9477 13 11.5ZM8 12.5C8.55228 12.5 9 12.0523 9 11.5C9 10.9477 8.55228 10.5 8 10.5C7.44772 10.5 7 10.9477 7 11.5C7 12.0523 7.44772 12.5 8 12.5Z" fill="#222B45"/>
</svg>
