<svg width="20" height="20" viewBox="0 0 20 20" fill="none" xmlns="http://www.w3.org/2000/svg">
<path d="M11.3567 17.0598L10.9049 17.823C10.5023 18.5033 9.49643 18.5033 9.09377 17.823L8.64202 17.0598C8.29162 16.4678 8.11642 16.1719 7.83501 16.0081C7.55359 15.8445 7.19928 15.8384 6.49067 15.8262C5.44453 15.8081 4.78842 15.744 4.23817 15.5161C3.21722 15.0932 2.40607 14.2821 1.98318 13.2611C1.66602 12.4955 1.66602 11.5247 1.66602 9.58329V8.74996C1.66602 6.0221 1.66602 4.65817 2.28002 3.65622C2.62358 3.09557 3.09496 2.62419 3.65561 2.28063C4.65756 1.66663 6.02149 1.66663 8.74935 1.66663H11.2493C13.9772 1.66663 15.3411 1.66663 16.3431 2.28063C16.9038 2.62419 17.3751 3.09557 17.7187 3.65622C18.3327 4.65817 18.3327 6.0221 18.3327 8.74996V9.58329C18.3327 11.5247 18.3327 12.4955 18.0155 13.2611C17.5926 14.2821 16.7815 15.0932 15.7605 15.5161C15.2103 15.744 14.5542 15.8081 13.508 15.8262C12.7993 15.8384 12.4451 15.8445 12.1637 16.0081C11.8823 16.1718 11.707 16.4678 11.3567 17.0598Z" />
</svg>
