<svg width="55" height="55" viewBox="0 0 50 50" fill="none" xmlns="http://www.w3.org/2000/svg">
<path d="M10.6775 50C6.1349 50 8.13366 39.7725 6.77087 30.8474C6.31661 27.9362 2.22825 25.14 1.68313 22.9566C-0.0430669 15.5254 -2.81407 1.88876 7.49769 0.20333C17.8095 -1.4821 18.1274 7.86436 25.1231 7.86436C32.1187 7.86436 32.255 -1.17566 42.6122 0.20333C52.9694 1.58231 49.835 15.1423 48.4722 22.8034C48.0179 24.5271 43.4753 28.4725 43.1119 30.6942C41.6128 39.8874 44.5655 49.8468 39.4778 49.8468C35.2531 49.8468 33.4815 39.4278 30.3925 32.6095C29.166 29.4301 27.4852 27.0169 25.1231 27.0169C18.1274 27.0169 16.9918 50 10.6775 50Z" fill="#02B974"/>
</svg>
