<svg width="24" height="25" viewBox="0 0 24 25" fill="none" xmlns="http://www.w3.org/2000/svg">
<path fill-rule="evenodd" clip-rule="evenodd" d="M3.46447 3.96447C2 5.42893 2 7.78595 2 12.5C2 17.214 2 19.5711 3.46447 21.0355C4.92893 22.5 7.28595 22.5 12 22.5C16.714 22.5 19.0711 22.5 20.5355 21.0355C22 19.5711 22 17.214 22 12.5C22 7.78595 22 5.42893 20.5355 3.96447C19.0711 2.5 16.714 2.5 12 2.5C7.28595 2.5 4.92893 2.5 3.46447 3.96447ZM17.5762 10.9801C17.8413 10.6619 17.7983 10.189 17.4801 9.92383C17.1619 9.65866 16.689 9.70165 16.4238 10.0199L14.6269 12.1761C14.2562 12.6211 14.0284 12.8915 13.8409 13.0609C13.7539 13.1394 13.7023 13.1708 13.6775 13.1827C13.6725 13.1852 13.6689 13.1866 13.6667 13.1875C13.6667 13.1875 13.6624 13.1858 13.659 13.1842L13.6558 13.1827C13.6311 13.1708 13.5795 13.1394 13.4925 13.0609C13.3049 12.8915 13.0772 12.6211 12.7064 12.1761L12.414 11.8252C12.0855 11.431 11.7894 11.0756 11.5128 10.8258C11.2119 10.5541 10.8328 10.312 10.3333 10.312C9.83384 10.312 9.45478 10.5541 9.15384 10.8258C8.87725 11.0756 8.58113 11.431 8.25267 11.8253L6.42383 14.0199C6.15866 14.3381 6.20165 14.811 6.51986 15.0762C6.83807 15.3413 7.31099 15.2983 7.57617 14.9801L9.37306 12.8239C9.74385 12.3789 9.97155 12.1085 10.1591 11.9391C10.2461 11.8606 10.2977 11.8292 10.3225 11.8173C10.3251 11.816 10.3292 11.8142 10.3292 11.8142L10.3333 11.8125C10.3356 11.8134 10.3392 11.8148 10.3442 11.8173C10.3689 11.8292 10.4205 11.8606 10.5075 11.9391C10.6951 12.1085 10.9228 12.3789 11.2936 12.8239L11.586 13.1748C11.9145 13.569 12.2106 13.9244 12.4872 14.1742C12.7881 14.4459 13.1672 14.688 13.6667 14.688C14.1662 14.688 14.5452 14.4459 14.8462 14.1742C15.1228 13.9244 15.4189 13.569 15.7473 13.1748L17.5762 10.9801Z" fill="#222B45"/>
</svg>
