<svg width="13" height="13" viewBox="0 0 13 13" fill="none" xmlns="http://www.w3.org/2000/svg">
<path d="M12.8413 8.84287C12.7397 8.74133 12.602 8.68428 12.4583 8.68428C12.3147 8.68428 12.177 8.74133 12.0754 8.84287L9.02742 11.8914L7.57142 10.4543C7.47086 10.3513 7.33347 10.2923 7.18947 10.2906C7.04548 10.2888 6.90668 10.3443 6.80361 10.4448C6.70053 10.5454 6.64162 10.6828 6.63985 10.8268C6.63807 10.9708 6.69356 11.1096 6.79413 11.2127L8.28046 12.6752C8.37369 12.7757 8.4863 12.8563 8.6115 12.9121C8.73671 12.968 8.87192 12.9979 9.009 13.0002H9.02688C9.16124 13.0006 9.29435 12.9744 9.41849 12.9229C9.54262 12.8715 9.65531 12.7959 9.75 12.7006L12.8413 9.60879C12.9428 9.50721 12.9999 9.36946 12.9999 9.22583C12.9999 9.0822 12.9428 8.94445 12.8413 8.84287ZM6.00708 11.8946C4.96115 11.799 3.96556 11.4014 3.14152 10.7502C2.31748 10.099 1.70054 9.22229 1.3658 8.22677C1.03106 7.23124 0.992967 6.15987 1.25616 5.14309C1.51934 4.12631 2.07246 3.20797 2.84817 2.49988C3.62388 1.79179 4.58872 1.32449 5.62522 1.15487C6.66173 0.985247 7.72519 1.12062 8.68614 1.54452C9.6471 1.96841 10.4641 2.66254 11.0377 3.54239C11.6112 4.42224 11.9166 5.44987 11.9167 6.50016C11.9167 6.66645 11.9085 6.83112 11.8945 6.99362C11.8878 7.06464 11.8953 7.13627 11.9164 7.2044C11.9375 7.27252 11.9719 7.33581 12.0176 7.39062C12.0632 7.44543 12.1192 7.49068 12.1824 7.52378C12.2456 7.55688 12.3147 7.57717 12.3857 7.5835C12.4567 7.59064 12.5285 7.58353 12.5967 7.56258C12.6649 7.54163 12.7282 7.50726 12.783 7.46149C12.8377 7.41573 12.8828 7.35949 12.9155 7.29607C12.9482 7.23266 12.9679 7.16334 12.9735 7.0922C12.9908 6.89558 13 6.69895 13 6.50016C12.9999 5.23976 12.6334 4.00657 11.9451 2.95073C11.2568 1.89488 10.2763 1.06193 9.12312 0.553287C7.96991 0.0446446 6.6937 -0.117747 5.44986 0.0858836C4.20602 0.289514 3.04821 0.850382 2.1174 1.7002C1.18659 2.55002 0.522924 3.65213 0.207215 4.87235C-0.108494 6.09257 -0.0626317 7.37825 0.339219 8.57287C0.741069 9.7675 1.48157 10.8195 2.47057 11.6009C3.45957 12.3822 4.6544 12.8591 5.90958 12.9736C5.92638 12.9736 5.94263 12.9736 5.95888 12.9736C6.10253 12.98 6.24285 12.9291 6.34895 12.832C6.45505 12.735 6.51825 12.5997 6.52465 12.4561C6.53104 12.3124 6.4801 12.1721 6.38304 12.066C6.28598 11.9599 6.15074 11.8967 6.00708 11.8903V11.8946ZM5.95833 3.79183V6.27591L4.49204 7.7422C4.44031 7.79217 4.39904 7.85194 4.37065 7.91803C4.34227 7.98411 4.32732 8.05519 4.3267 8.12711C4.32607 8.19903 4.33978 8.27036 4.36701 8.33693C4.39425 8.4035 4.43447 8.46398 4.48533 8.51483C4.53619 8.56569 4.59666 8.60591 4.66323 8.63315C4.7298 8.66039 4.80113 8.67409 4.87305 8.67347C4.94497 8.67284 5.01605 8.6579 5.08214 8.62951C5.14822 8.60112 5.20799 8.55986 5.25796 8.50812L6.88296 6.88312C6.98455 6.78156 7.04164 6.64381 7.04167 6.50016V3.79183C7.04167 3.64817 6.9846 3.5104 6.88302 3.40881C6.78143 3.30723 6.64366 3.25016 6.5 3.25016C6.35634 3.25016 6.21857 3.30723 6.11698 3.40881C6.0154 3.5104 5.95833 3.64817 5.95833 3.79183Z" fill="#646260"/>
</svg>
