<svg width="75" height="75" viewBox="0 0 75 75" fill="none" xmlns="http://www.w3.org/2000/svg">
<path d="M37.5 39.2708C45.2695 39.2708 51.5625 32.9313 51.5625 25.1042C51.5625 17.277 45.2695 10.9375 37.5 10.9375C29.7305 10.9375 23.4375 17.277 23.4375 25.1042C23.4375 32.9313 29.7305 39.2708 37.5 39.2708Z" fill="#388E3C"/>
<path fill-rule="evenodd" clip-rule="evenodd" d="M24.4303 46.7772C24.1414 47.7519 24.122 48.9177 24.5545 50.31C24.7013 50.2961 24.8498 50.2891 25 50.2891C27.5889 50.2891 29.6875 52.4033 29.6875 55.0113C29.6875 57.6192 27.5889 59.7335 25 59.7335C22.4111 59.7335 20.3125 57.6192 20.3125 55.0113C20.3125 53.6963 20.8461 52.5068 21.707 51.6505C20.9877 49.5949 20.9108 47.6555 21.4341 45.8893C21.4456 45.8502 21.4575 45.8113 21.4697 45.7725C14.9096 48.1196 9.375 51.8588 9.375 56.9786V67.1869H65.625V56.9786C65.625 51.9047 60.1894 48.1868 53.7067 45.8361C54.0255 46.7428 54.2067 47.7082 54.2409 48.7266H54.5956C54.9555 48.7266 55.3042 48.8507 55.5831 49.0782L58.8 51.7016C59.1639 51.9983 59.375 52.443 59.375 52.9125V59.7335C59.375 60.5964 58.6755 61.296 57.8125 61.296H54.5956V58.171H56.25V53.6544L54.0392 51.8516H53.9133C53.8989 51.913 53.8841 51.9747 53.8688 52.0366L53.1228 51.8516H50.6483L48.4375 53.6544V58.171H50.0919V61.296H46.875C46.012 61.296 45.3125 60.5964 45.3125 59.7335V52.9125C45.3125 52.443 45.5236 51.9983 45.8875 51.7016L49.1044 49.0782C49.3833 48.8507 49.732 48.7266 50.0919 48.7266H51.1134C51.0747 47.926 50.9067 47.2099 50.6428 46.5688C50.3267 45.8013 49.8552 45.0978 49.2409 44.4621C49.0364 44.4093 48.8317 44.3577 48.6272 44.3075C47.8416 44.1144 47.0358 44.5094 46.6791 45.2403H40.3289C38.9403 45.2407 38.2334 45.2407 37.5389 45.2405C36.8184 45.2405 36.1113 45.2405 34.6708 45.2408L28.3209 45.2403C27.9642 44.5094 27.1584 44.1144 26.3728 44.3075C26.1978 44.3505 26.0225 44.3944 25.8475 44.4394C25.1552 45.1524 24.6798 45.9353 24.4303 46.7772ZM26.5625 55.0113C26.5625 55.9152 25.8412 56.6085 25 56.6085C24.1588 56.6085 23.4375 55.9152 23.4375 55.0113C23.4375 54.1074 24.1588 53.4141 25 53.4141C25.8412 53.4141 26.5625 54.1074 26.5625 55.0113Z" fill="#388E3C"/>
</svg>
