<svg width="55" height="70" viewBox="0 0 71 70" fill="none" xmlns="http://www.w3.org/2000/svg">
<path d="M25.8618 0C22.2281 0 19.2142 2.80273 18.3513 6.58984C18.2541 6.58984 18.1812 6.5625 18.084 6.5625C13.7941 6.5625 10.3062 10.4863 10.3062 15.3125C10.3062 15.9688 10.3791 16.6113 10.5128 17.2266C6.96419 18.8672 4.47287 22.7773 4.47287 27.3438C4.47287 29.0664 4.86176 30.666 5.48155 32.1152C2.56489 34.002 0.583984 37.502 0.583984 41.5625C0.583984 46.1152 3.06315 50.0254 6.58746 51.666C6.47808 52.2949 6.41732 52.9375 6.41732 53.5938C6.41732 59.0352 10.3305 63.4375 15.1673 63.4375C15.6656 63.4375 16.1517 63.3691 16.6257 63.2734C17.7923 67.1699 21.025 70 24.8895 70C29.7263 70 33.6395 65.5977 33.6395 60.1562V8.75C33.6395 3.92383 30.1517 0 25.8618 0ZM70.584 41.5625C70.584 37.502 68.6031 34.002 65.6864 32.1152C66.3184 30.666 66.6951 29.0664 66.6951 27.3438C66.6951 22.7773 64.2038 18.8672 60.6552 17.2266C60.7767 16.6113 60.8618 15.9688 60.8618 15.3125C60.8618 10.4863 57.3739 6.5625 53.084 6.5625C52.9868 6.5625 52.9017 6.58984 52.8166 6.58984C51.9538 2.80273 48.9399 0 45.3062 0C41.0163 0 37.5284 3.91016 37.5284 8.75V60.1562C37.5284 65.5977 41.4416 70 46.2784 70C50.143 70 53.3756 67.1699 54.5423 63.2734C55.0163 63.3691 55.5024 63.4375 56.0006 63.4375C60.8375 63.4375 64.7506 59.0352 64.7506 53.5938C64.7506 52.9375 64.6899 52.2949 64.5805 51.666C68.1048 50.0254 70.584 46.1152 70.584 41.5625Z" fill="#9C27B0"/>
</svg>
