<svg width="140" height="140" viewBox="0 0 140 140" fill="none" xmlns="http://www.w3.org/2000/svg">
<path d="M132.927 100.662C140.097 85.9477 141.884 69.1862 137.977 53.2912C134.07 37.3963 124.716 23.3731 111.542 13.6593C98.3678 3.9456 82.2062 -0.844356 65.8667 0.122138C49.5272 1.08863 34.043 7.75046 22.1059 18.9495C10.1687 30.1486 2.53357 45.1767 0.527646 61.4214C-1.47828 77.6661 2.27188 94.1001 11.1262 107.867C19.9805 121.633 33.3791 131.861 48.9927 136.773C64.6063 141.686 81.4476 140.971 96.5889 134.754L93.6642 127.631C80.1884 133.164 65.1996 133.8 51.3035 129.428C37.4074 125.057 25.4827 115.953 17.6023 103.701C9.72198 91.4491 6.38433 76.8228 8.16961 62.3651C9.95488 47.9073 16.7502 34.5323 27.3742 24.5651C37.9982 14.5979 51.7792 8.66888 66.3213 7.8087C80.8635 6.94852 95.2473 11.2116 106.972 19.8568C118.697 28.502 127.022 40.9827 130.499 55.1292C133.976 69.2757 132.386 84.1934 126.005 97.2891L132.927 100.662Z" fill="#161528"/>
<path d="M137 115C137 128.807 125.807 140 112 140C98.1929 140 87 128.807 87 115C87 101.193 98.1929 90 112 90C125.807 90 137 101.193 137 115ZM92.25 115C92.25 125.908 101.092 134.75 112 134.75C122.908 134.75 131.75 125.908 131.75 115C131.75 104.092 122.908 95.25 112 95.25C101.092 95.25 92.25 104.092 92.25 115Z" fill="#161528"/>
<path fill-rule="evenodd" clip-rule="evenodd" d="M112 105C106.477 105 102 109.477 102 115C102 120.523 106.477 125 112 125H117C118.553 125 119.33 125 119.942 124.746C120.759 124.408 121.408 123.759 121.746 122.942C122 122.33 122 121.553 122 120V115C122 109.477 117.523 105 112 105ZM107.556 113.889C107.556 113.275 108.053 112.778 108.667 112.778H115.333C115.947 112.778 116.444 113.275 116.444 113.889C116.444 114.503 115.947 115 115.333 115H108.667C108.053 115 107.556 114.503 107.556 113.889ZM110.889 118.333C110.889 117.72 111.386 117.222 112 117.222H115.333C115.947 117.222 116.444 117.72 116.444 118.333C116.444 118.947 115.947 119.444 115.333 119.444H112C111.386 119.444 110.889 118.947 110.889 118.333Z" fill="#161528"/>
<path fill-rule="evenodd" clip-rule="evenodd" d="M49.1578 58.3337C46.1712 58.3337 43.75 60.7548 43.75 63.7414V78.3335C43.75 84.1809 43.75 87.1045 45.0912 89.2389C45.7905 90.3519 46.7317 91.2932 47.8447 91.9926C49.9792 93.3337 52.9028 93.3337 58.75 93.3337H81.2499C87.0972 93.3337 90.0209 93.3337 92.1553 91.9926C93.2683 91.2932 94.2095 90.3519 94.9089 89.2389C96.25 87.1045 96.25 84.1809 96.25 78.3335V63.7414C96.25 60.7548 93.8289 58.3337 90.8422 58.3337C88.7938 58.3337 86.9213 57.1764 86.0052 55.3443L83.6112 50.5559C83.2907 49.9145 83.13 49.5937 82.9482 49.3148C81.9995 47.8594 80.4513 46.9026 78.7252 46.7049C78.3945 46.667 78.036 46.667 77.3188 46.667H62.6812C61.9641 46.667 61.6055 46.667 61.2747 46.7049C59.5487 46.9026 58.0005 47.8594 57.0518 49.3148C56.87 49.5938 56.7096 49.9145 56.3889 50.5559L53.9947 55.3443C53.0786 57.1764 51.2061 58.3337 49.1578 58.3337ZM75.8333 72.917C75.8333 76.1387 73.2218 78.7503 70 78.7503C66.7783 78.7503 64.1667 76.1387 64.1667 72.917C64.1667 69.6952 66.7783 67.0837 70 67.0837C73.2218 67.0837 75.8333 69.6952 75.8333 72.917ZM81.6667 72.917C81.6667 79.3602 76.4432 84.5837 70 84.5837C63.5567 84.5837 58.3333 79.3602 58.3333 72.917C58.3333 66.4738 63.5567 61.2503 70 61.2503C76.4432 61.2503 81.6667 66.4738 81.6667 72.917Z" fill="#161528"/>
</svg>
