<svg width="120" height="120" viewBox="0 0 120 120" fill="none" xmlns="http://www.w3.org/2000/svg">
<path d="M85.9465 55.3848C67.1681 55.3848 51.8926 69.8784 51.8926 87.6924C51.8926 105.506 67.1681 120 85.9465 120C104.725 120 120 105.506 120 87.6924C120 69.8784 104.725 55.3848 85.9465 55.3848ZM85.9465 113.846C70.747 113.846 58.379 102.114 58.379 87.6923C58.379 73.2707 70.747 61.5385 85.9465 61.5385C101.146 61.5385 113.514 73.2707 113.514 87.6923C113.514 102.114 101.146 113.846 85.9465 113.846Z" fill="#161528"/>
<path d="M6.48646 107.692V9.23069C6.48646 7.53447 7.94187 6.15384 9.72962 6.15384H94.0535C95.8414 6.15384 97.2966 7.53462 97.2966 9.23069V46.1536H103.783V9.23069C103.783 4.14056 99.4187 0 94.0535 0H9.72962C4.36436 0 0 4.14056 0 9.23069V107.692C0 112.782 4.36436 116.923 9.72962 116.923H48.6482V110.769H9.72962C7.94172 110.769 6.48646 109.388 6.48646 107.692Z" fill="#161528"/>
<path d="M16.2168 24.6152H90.8109V30.7691H16.2168V24.6152ZM16.2168 55.3844H51.8923V61.5383H16.2168V55.3844ZM16.2168 86.1535H38.9193V92.3074H16.2168V86.1535ZM98.9189 82.2113H91.4443L97.9687 76.0215C99.2356 74.8196 99.2356 72.8725 97.9687 71.6705C96.7019 70.4684 94.6495 70.4686 93.3825 71.6705L85.9458 78.7257L78.5093 71.6705C77.2425 70.4686 75.1902 70.4686 73.9231 71.6705C72.6563 72.8724 72.6563 74.8194 73.9231 76.0215L80.4475 82.2113H72.9732C71.1807 82.2113 69.7301 83.589 69.7301 85.2882C69.7301 86.9873 71.1807 88.365 72.9732 88.365H82.7029V92.3074H77.838C76.0452 92.3074 74.5947 93.685 74.5947 95.3842C74.5947 97.0834 76.0452 98.4611 77.838 98.4611H82.7029V101.538C82.7029 103.237 84.1534 104.615 85.946 104.615C87.7387 104.615 89.1892 103.237 89.1892 101.538V98.4611H94.054C95.8466 98.4611 97.2972 97.0834 97.2972 95.3842C97.2972 93.685 95.8466 92.3074 94.054 92.3074H89.1892V88.365H98.9188C100.711 88.365 102.162 86.9873 102.162 85.2882C102.162 83.589 100.712 82.2113 98.9189 82.2113Z" fill="#161528"/>
</svg>
