<svg width="170" height="170" viewBox="0 0 170 170" fill="none" xmlns="http://www.w3.org/2000/svg">
<path fill-rule="evenodd" clip-rule="evenodd" d="M35.416 81.4583C35.416 77.5462 38.5872 74.375 42.4993 74.375H49.5827C53.4948 74.375 56.666 77.5462 56.666 81.4583V88.5417C56.666 92.4538 53.4948 95.625 49.5827 95.625H42.4993C38.5872 95.625 35.416 92.4538 35.416 88.5417V81.4583ZM49.5827 81.4583V88.5417H42.4993V81.4583H49.5827Z" fill="#161528"/>
<path fill-rule="evenodd" clip-rule="evenodd" d="M70.8333 74.375C66.9212 74.375 63.75 77.5462 63.75 81.4583V88.5417C63.75 92.4538 66.9212 95.625 70.8333 95.625H77.9167C81.8288 95.625 85 92.4538 85 88.5417V81.4583C85 77.5462 81.8288 74.375 77.9167 74.375H70.8333ZM77.9167 81.4583H70.8333V88.5417H77.9167V81.4583Z" fill="#161528"/>
<path fill-rule="evenodd" clip-rule="evenodd" d="M92.084 81.4583C92.084 77.5462 95.2552 74.375 99.1673 74.375H106.251C110.163 74.375 113.334 77.5462 113.334 81.4583V88.5417C113.334 92.4538 110.163 95.625 106.251 95.625H99.1673C95.2552 95.625 92.084 92.4538 92.084 88.5417V81.4583ZM99.1673 81.4583H106.251V88.5417H99.1673V81.4583Z" fill="#161528"/>
<path fill-rule="evenodd" clip-rule="evenodd" d="M42.4993 102.708C38.5872 102.708 35.416 105.879 35.416 109.791V116.875C35.416 120.787 38.5872 123.958 42.4993 123.958H49.5827C53.4948 123.958 56.666 120.787 56.666 116.875V109.791C56.666 105.879 53.4948 102.708 49.5827 102.708H42.4993ZM42.4993 109.791V116.875H49.5827V109.791H42.4993Z" fill="#161528"/>
<path fill-rule="evenodd" clip-rule="evenodd" d="M63.75 109.791C63.75 105.879 66.9212 102.708 70.8333 102.708H77.9167C81.8288 102.708 85 105.879 85 109.791V116.875C85 120.787 81.8288 123.958 77.9167 123.958H70.8333C66.9212 123.958 63.75 120.787 63.75 116.875V109.791ZM70.8333 109.791H77.9167V116.875H70.8333V109.791Z" fill="#161528"/>
<path d="M123.958 111.562C125.914 111.562 127.499 113.148 127.499 115.104V122.491L130.004 124.996C131.387 126.379 131.387 128.621 130.004 130.004C128.621 131.387 126.378 131.387 124.995 130.004L120.416 125.425V115.104C120.416 113.148 122.002 111.562 123.958 111.562Z" fill="#161528"/>
<path fill-rule="evenodd" clip-rule="evenodd" d="M42.5 24.7917C42.5 22.8357 44.0856 21.25 46.0417 21.25C47.9977 21.25 49.5833 22.8357 49.5833 24.7917V42.5C49.5833 44.4561 47.9977 46.0417 46.0417 46.0417C44.0856 46.0417 42.5 44.4561 42.5 42.5V38.9583H31.875C29.919 38.9583 28.3333 40.5439 28.3333 42.5V56.6667H120.417V42.5C120.417 40.5439 118.831 38.9583 116.875 38.9583H106.25V31.875H116.875C122.743 31.875 127.5 36.6322 127.5 42.5V99.4178C139.514 101.136 148.75 111.469 148.75 123.958C148.75 137.65 137.65 148.75 123.958 148.75C115.534 148.75 108.09 144.548 103.61 138.125H31.875C26.007 138.125 21.25 133.368 21.25 127.5V42.5C21.25 36.6318 26.007 31.875 31.875 31.875H42.5V24.7917ZM99.1667 123.958C99.1667 111.469 108.402 101.136 120.417 99.4178V63.75H28.3333V127.5C28.3333 129.456 29.919 131.042 31.875 131.042H100.193C99.5254 128.797 99.1667 126.42 99.1667 123.958ZM123.958 141.667C133.738 141.667 141.667 133.738 141.667 123.958C141.667 114.178 133.738 106.25 123.958 106.25C114.178 106.25 106.25 114.178 106.25 123.958C106.25 133.738 114.178 141.667 123.958 141.667Z" fill="#161528"/>
<path d="M95.6244 46.0417C93.6683 46.0417 92.0827 44.4561 92.0827 42.5V38.9583H56.666V31.875H92.0827V24.7917C92.0827 22.8357 93.6683 21.25 95.6244 21.25C97.5804 21.25 99.166 22.8357 99.166 24.7917V42.5C99.166 44.4561 97.5804 46.0417 95.6244 46.0417Z" fill="#161528"/>
</svg>
