<svg width="22" height="22" viewBox="0 0 22 22" fill="none" xmlns="http://www.w3.org/2000/svg">
<path d="M10.4665 11.0023H3.22908M3.02394 12.037L1.82822 15.9324C1.17334 18.0658 0.845892 19.1325 1.08088 19.7894C1.28494 20.3599 1.72322 20.7924 2.26405 20.9571C2.88681 21.1465 3.82743 20.6849 5.70867 19.7617L17.7692 13.8428C19.6054 12.9416 20.5235 12.4911 20.8073 11.8651C21.0538 11.3213 21.0538 10.6832 20.8073 10.1394C20.5235 9.51355 19.6054 9.06293 17.7692 8.16176L5.68787 2.23271C3.8123 1.31225 2.87452 0.852014 2.25237 1.04081C1.71206 1.20477 1.27382 1.63612 1.06905 2.20553C0.833254 2.8612 1.1572 3.92561 1.8051 6.05444L3.02626 10.067C3.13753 10.4326 3.19318 10.6154 3.21514 10.8023C3.23463 10.9683 3.23443 11.1363 3.21455 11.3021C3.19215 11.489 3.13608 11.6716 3.02394 12.037Z" stroke="black" stroke-width="1.2" stroke-linecap="round" stroke-linejoin="round"/>
</svg>
