<svg width="25" height="25" viewBox="0 0 25 25" fill="none" xmlns="http://www.w3.org/2000/svg">
<path fill-rule="evenodd" clip-rule="evenodd" d="M8.33333 10.417C8.33333 8.1158 10.1988 6.25033 12.5 6.25033C14.8011 6.25033 16.6667 8.1158 16.6667 10.417V11.4587H17.7083C19.7219 11.4587 21.3542 13.091 21.3542 15.1045C21.3542 17.118 19.7219 18.7503 17.7083 18.7503H16.6667C16.0914 18.7503 15.625 19.2167 15.625 19.792C15.625 20.3673 16.0914 20.8337 16.6667 20.8337H17.7083C20.8725 20.8337 23.4375 18.2687 23.4375 15.1045C23.4375 12.2704 21.3797 9.91696 18.6767 9.45683C18.2148 6.46088 15.6253 4.16699 12.5 4.16699C9.37473 4.16699 6.78522 6.46088 6.32329 9.45683C3.62032 9.91696 1.5625 12.2704 1.5625 15.1045C1.5625 18.2687 4.12753 20.8337 7.29167 20.8337H8.33333C8.90862 20.8337 9.375 20.3673 9.375 19.792C9.375 19.2167 8.90862 18.7503 8.33333 18.7503H7.29167C5.27812 18.7503 3.64583 17.118 3.64583 15.1045C3.64583 13.091 5.27812 11.4587 7.29167 11.4587H8.33333V10.417ZM16.3616 13.8471L13.2366 10.7221C12.8298 10.3153 12.1702 10.3153 11.7634 10.7221L8.63843 13.8471C8.23163 14.2539 8.23163 14.9135 8.63843 15.3202C9.04523 15.727 9.70477 15.727 10.1116 15.3202L11.4583 13.9734V19.792C11.4583 20.3673 11.9247 20.8337 12.5 20.8337C13.0753 20.8337 13.5417 20.3673 13.5417 19.792V13.9734L14.8884 15.3202C15.2952 15.727 15.9548 15.727 16.3616 15.3202C16.7683 14.9135 16.7683 14.2539 16.3616 13.8471Z" fill="#161528"/>
</svg>
